<svg width="1200" height="800" viewBox="0 0 1200 800" xmlns="http://www.w3.org/2000/svg">
    <!-- Deep Space Nexus Core -->
    <rect width="1200" height="800" fill="#000000"/>

    <!-- Cybernetic Ambient Glow -->
    <rect x="100" y="100" width="1000" height="600" rx="20"
          fill="none" stroke="#00f2ff" stroke-width="15" stroke-opacity="0.05"/>

    <!-- Primary Holographic Command Window -->
    <rect x="110" y="110" width="980" height="580" rx="15"
          fill="#05060a" fill-opacity="0.85" stroke="#00f2ff" stroke-width="2"/>

    <!-- Square Resize Corners -->
    <g fill="#00f2ff">
        <rect x="110" y="110" width="10" height="10"/>
        <rect x="1080" y="110" width="10" height="10"/>
        <rect x="110" y="680" width="10" height="10"/>
        <rect x="1080" y="680" width="10" height="10"/>
    </g>

    <!-- Tactical Navigation Grid -->
    <g stroke="#00f2ff" stroke-width="0.5" stroke-opacity="0.15">
        <line x1="120" y1="110" x2="120" y2="690"/>
        <line x1="240" y1="110" x2="240" y2="690"/>
        <line x1="360" y1="110" x2="360" y2="690"/>
        <line x1="480" y1="110" x2="480" y2="690"/>
        <line x1="600" y1="110" x2="600" y2="690"/>
        <line x1="720" y1="110" x2="720" y2="690"/>
        <line x1="840" y1="110" x2="840" y2="690"/>
        <line x1="960" y1="110" x2="960" y2="690"/>

        <line x1="110" y1="120" x2="1090" y2="120"/>
        <line x1="110" y1="240" x2="1090" y2="240"/>
        <line x1="110" y1="360" x2="1090" y2="360"/>
        <line x1="110" y1="480" x2="1090" y2="480"/>
        <line x1="110" y1="600" x2="1090" y2="600"/>
    </g>

    <!-- Heavy Mechanical Corner Reinforcements -->
    <g fill="none" stroke="#00f2ff" stroke-width="6">
        <path d="M 110 220 L 110 110 L 220 110"/>
        <path d="M 980 110 L 1090 110 L 1090 220"/>
        <path d="M 1090 580 L 1090 690 L 980 690"/>
        <path d="M 220 690 L 110 690 L 110 580"/>
    </g>

    <!-- Header Section -->
    <g font-family="monospace" font-weight="bold">
        <rect x="130" y="130" width="210" height="16" fill="#00f2ff" fill-opacity="0.5"/>
        <text x="135" y="142" font-size="10" fill="#000000">CVBGOD::JOSEPH_M_CATALANO</text>
        <text x="760" y="145" font-size="14" fill="#00f2ff">ARCHITECT: [SENIOR]</text>
        <text x="760" y="165" font-size="11" fill="#00f2ff" fill-opacity="0.7">DOMAIN: AVIS-2026 LAWGIVER</text>
    </g>

    <!-- High-Frequency Scanline Texture -->
    <g stroke="#00f2ff" stroke-width="0.5" stroke-opacity="0.08">
        <line x1="110" y1="115" x2="1090" y2="115"/>
        <line x1="110" y1="125" x2="1090" y2="125"/>
        <line x1="110" y1="135" x2="1090" y2="135"/>
        <line x1="110" y1="675" x2="1090" y2="675"/>
    </g>

    <!-- LEFT NAV PANEL -->
    <rect x="130" y="190" width="220" height="460" rx="10"
          fill="#05060f" fill-opacity="0.95"
          stroke="#00f2ff" stroke-width="1" stroke-opacity="0.6"/>

    <g font-family="monospace" font-weight="bold">
        <text x="145" y="215" font-size="12" fill="#00f2ff">SYSTEM_STACK</text>
        <text x="145" y="245" font-size="11" fill="#f5f5f5">▸ pure.c.discipline</text>
        <text x="145" y="265" font-size="11" fill="#f5f5f5" fill-opacity="0.7">▹ x86_64.assembly</text>
        <text x="145" y="285" font-size="11" fill="#f5f5f5" fill-opacity="0.7">▹ intel.tso.memory</text>
        <text x="145" y="305" font-size="11" fill="#f5f5f5" fill-opacity="0.7">▹ deterministic.arch</text>
        <text x="145" y="335" font-size="11" fill="#00f2ff">▸ core.projects</text>
        <text x="160" y="355" font-size="10" fill="#f5f5f5">- avis_2026.forge</text>
        <text x="160" y="372" font-size="10" fill="#f5f5f5">- matrix.drive</text>
        <text x="160" y="389" font-size="10" fill="#f5f5f5">- fire_works.v8</text>
        <text x="145" y="420" font-size="11" fill="#00f2ff">▸ rku.combat.ops</text>
        <text x="160" y="440" font-size="10" fill="#f5f5f5">- threat.eval</text>
        <text x="160" y="457" font-size="10" fill="#f5f5f5">- tactical.move</text>
        <text x="160" y="474" font-size="10" fill="#f5f5f5">- intent.opcodes</text>
    </g>

    <!-- MAIN CONSOLE PANEL -->
    <rect x="370" y="190" width="460" height="260" rx="10"
          fill="#05060c" fill-opacity="0.98"
          stroke="#00f2ff" stroke-width="1" stroke-opacity="0.6"/>

    <g font-family="monospace" font-weight="bold">
        <text x="385" y="210" font-size="12" fill="#00f2ff">CONSOLE :: ARCHITECTURAL_DETERMINISM</text>
        <text x="385" y="226" font-size="10" fill="#00f2ff" fill-opacity="0.7">role: senior systems architect | since: 1999</text>
    </g>

    <g font-family="monospace" font-size="10" fill="#e8e8e8">
        <text x="385" y="246">$ status --user=Joseph_M_Catalano</text>
        <text x="385" y="262" fill="#00ff99">[OK] MERCWAR Systems: 25+ Years Experience</text>
        <text x="385" y="276" fill="#00ff99">[OK] Language: C89/C99/Assembly (Strict Mode)</text>
        <text x="385" y="290" fill="#00ff99">[OK] Protocol: AVIS-2026 Lawgiver</text>
        <text x="385" y="304" fill="#ffdd55">[LOG] Build: Automated AVIS-2026 Forge Constructor</text>
        <text x="385" y="318" fill="#ffdd55">[LOG] Memory: Matrix Drive Linear Scanner</text>
        <text x="385" y="332" fill="#ffdd55">[INFO] Discipline: No Frameworks. No Abstractions.</text>
        <text x="385" y="346" fill="#ffdd55">[INFO] Architecture: Sovereign/Deterministic</text>
        <text x="385" y="360" fill="#00ff99">[OK] Intelligence: Data Transport to GitHub Repos</text>
    </g>

    <!-- RIGHT METRICS PANEL -->
    <rect x="850" y="190" width="220" height="260" rx="10"
          fill="#05060f" fill-opacity="0.97"
          stroke="#00f2ff" stroke-width="1" stroke-opacity="0.6"/>

    <g font-family="monospace" font-weight="bold">
        <text x="865" y="210" font-size="12" fill="#00f2ff">CORE.METRICS</text>
    </g>

    <g font-family="monospace" font-size="10">
        <rect x="865" y="225" width="190" height="60" rx="8" fill="#05060c" stroke="#00f2ff" stroke-width="1"/>
        <text x="872" y="240" fill="#ffdd55">TENURE</text>
        <text x="872" y="256" fill="#e8e8e8">MERCWAR: 1999-PRESENT</text>
        <text x="872" y="270" fill="#9ad9ff">EXP: 27 YEARS</text>

        <rect x="865" y="295" width="190" height="60" rx="8" fill="#05060c" stroke="#00f2ff" stroke-width="1"/>
        <text x="872" y="310" fill="#ffdd55">SYSTEMS</text>
        <text x="872" y="326" fill="#00ff99">CODE PURITY: 100%</text>
        <text x="872" y="340" fill="#9ad9ff">DETERMINISM: FULL</text>
    </g>

    <!-- BOTTOM TIMELINE PANEL -->
    <rect x="370" y="470" width="700" height="200" rx="10"
          fill="#05060c" stroke="#00f2ff" stroke-width="1"/>

    <g font-family="monospace" font-weight="bold">
        <text x="385" y="492" font-size="12" fill="#ffdd55">CAREER_TIMELINE :: MILESTONES</text>
    </g>

    <g font-family="monospace" font-size="10">
        <line x1="385" y1="515" x2="1045" y2="515" stroke="#00f2ff" stroke-width="1" stroke-opacity="0.4"/>
        <circle cx="410" y="515" r="4" fill="#00ff99"/>
        <circle cx="540" y="515" r="4" fill="#00f2ff"/>
        <circle cx="670" y="515" r="4" fill="#ffdd55"/>
        <circle cx="800" y="515" r="4" fill="#ffdd55"/>
        <circle cx="930" y="515" r="4" fill="#00ff99"/>
        <circle cx="1040" y="515" r="4" fill="#00f2ff"/>

        <text x="395" y="535" fill="#e8e8e8">1999 :: Senior Systems Architect - MERCWAR</text>
        <text x="395" y="555" fill="#e8e8e8">2020 :: Matrix Drive Memory Engine Optimization</text>
        <text x="395" y="575" fill="#e8e8e8">2024 :: Robo-Knight Universe - Combat Opcodes</text>
        <text x="395" y="595" fill="#ffdd55">2026 :: AVIS-2026 Protocol Definition</text>
        <text x="395" y="615" fill="#00ff99">2026 :: Automated Forge Binary Constructor</text>
        <text x="395" y="635" fill="#00f2ff">PRESENT :: Fire-Works Browser Engine</text>
    </g>
</svg>
